<?xml version="1.0" encoding="UTF-8"?>
<!DOCTYPE svg PUBLIC "-//W3C//DTD SVG 1.1//EN" "http://www.w3.org/Graphics/SVG/1.1/DTD/svg11.dtd">
<!-- Creator: CorelDRAW -->
<svg xmlns="http://www.w3.org/2000/svg" xml:space="preserve" width="113.5mm" height="116mm" version="1.1" style="shape-rendering:geometricPrecision; text-rendering:geometricPrecision; image-rendering:optimizeQuality; fill-rule:evenodd; clip-rule:evenodd"
viewBox="0 0 11350 11600"
 xmlns:xlink="http://www.w3.org/1999/xlink"
 xmlns:xodm="http://www.corel.com/coreldraw/odm/2003">
 <defs>
  <style type="text/css">
   <![CDATA[
    .fil1 {fill:#282828}
    .fil0 {fill:url(#id0)}
   ]]>
  </style>
  <linearGradient id="id0" gradientUnits="userSpaceOnUse" x1="6408.37" y1="3799.6" x2="6434.86" y2="13573.64">
   <stop offset="0" style="stop-opacity:1; stop-color:#F56409"/>
   <stop offset="1" style="stop-opacity:1; stop-color:#ED3237"/>
  </linearGradient>
 </defs>
 <g id="Camada_x0020_1">
  <metadata id="CorelCorpID_0Corel-Layer"/>
  <g id="_2296882519936">
   <polygon class="fil0" points="1674.85,10922.94 1536.92,9543.5 598.87,8771.01 488.52,6205.27 681.63,3142.92 1619.68,2563.55 3523.28,2508.37 3909.51,1708.3 4185.42,908.23 5840.74,411.66 9979.03,549.6 10641.17,1046.17 10779.1,1873.83 10834.28,4467.19 10834.28,6260.45 10696.34,6977.76 9813.51,7557.09 9785.92,8384.75 9675.57,8936.54 8378.89,8053.7 7578.82,7308.81 7137.38,9019.3 5785.56,9322.8 3771.57,9488.32 2888.74,9957.31 "/>
   <path class="fil1" d="M3499.85 2106.99l-1946.31 0c-417.8,0 -797.17,170.38 -1071.99,445.52 -274.89,274.73 -445.51,654.1 -445.51,1071.7l0 4749.62c0,417.92 170.62,797.14 445.51,1071.99 176.81,177.26 397.35,310.96 643.31,383.53l0 1294.08 588.22 397.63c51.1,-20.54 97.43,-50.9 136.59,-88.1l1947.9 -1541.51 2505.39 0c417.76,0 797.26,-170.9 1072.11,-445.63 274.73,-275.14 445.51,-654.07 445.51,-1071.95l0 -237.49 1681.77 1330.87 690.9 -334.67 2 0 0 -1293.79c246.25,-72.74 466.5,-206.72 643.31,-383.53 274.73,-274.86 445.47,-654.23 445.47,-1071.99l0.04 -4749.78c0,-417.6 -170.82,-796.98 -445.51,-1071.83 -274.57,-274.86 -654.23,-445.35 -1071.71,-445.35l-4749.74 0c-417.8,0 -797.26,170.49 -1071.79,445.35 -275.01,274.85 -445.51,654.23 -445.51,1071.83l0.04 473.5zm0 856.92l0 2341.62c-363.28,212.06 -615.88,585.81 -615.88,1233.89 -0.08,648.16 467.6,1352.43 1044.28,1352.43 577.01,0 1044.36,-704.27 1044.36,-1352.43 0,-648.08 -252.68,-1021.83 -615.96,-1233.85l0 -2725.6 0 -44.58 0 -901.9c0,-181.13 74.57,-346.17 194.53,-465.89 119.48,-119.92 284.6,-194.37 465.93,-194.37l4749.74 0c181.01,0 346.17,74.45 465.93,194.37 119.88,119.72 194.21,284.76 194.21,465.89l0 4749.78c0,181.29 -74.33,346.16 -194.21,466.05 -119.76,119.92 -284.92,194.21 -465.93,194.21 -236.88,0 -428.52,191.8 -428.52,428.56l0 777.41 -1373.7 -1086.78c-41.12,-39.69 -89.73,-71.15 -144.05,-91.28l0 -2378.13c363.12,-212.18 615.85,-684.83 615.85,-1234.13l0 -1203.08 -298.29 0 0 1203.08 0 43.11c0,81.95 -67.15,149.06 -149.1,149.06l0 0c-82.07,0 -149.22,-67.11 -149.22,-149.06l0 -43.11 0 -1203.08 -298 0 0 1203.08 0 43.11c0,81.95 -67.4,149.06 -149.51,149.06 -81.91,0 -149.06,-67.11 -149.06,-149.06l0 -43.11 0.28 0 0 -1203.08 -298.41 0 0 1203.08 0 43.11c0,81.95 -67.03,149.06 -149.1,149.06l0 0c-82.07,0 -149.06,-67.11 -149.06,-149.06l-0.16 -43.11 0 -1203.08 -298.29 0 0 1141.83c-0.4,20.38 -1.02,-223.39 -1.02,61.25 0,285.2 252.61,1021.95 615.85,1234.13l0.04 2778.78 0 901.74c0,181.13 -74.49,346.33 -194.21,466.21 -120.05,119.89 -284.96,194.21 -466.21,194.21l-2651.15 0 0 1.71c-92.67,0 -186.11,30.08 -264.43,91.89l-1405.4 1112.38 0 -777.46c0,-236.75 -191.97,-428.52 -428.4,-428.52 -181.37,0 -346.45,-74.32 -466.21,-194.21 -119.8,-119.88 -194.58,-285.04 -194.58,-466.17l0 -4749.66c0,-181.01 74.74,-346.04 194.58,-465.76 119.76,-120.21 284.92,-194.5 466.21,-194.5l1946.27 -0.04z"/>
  </g>
 </g>
</svg>
